# This file uses centimeters as units for non-parametric coordinates.

mtllib PencilHolderOBJ.mtl
g default1
v -7.200879 -0.092038 5.824003
v -7.121482 -0.308949 5.824003
v -6.929803 -0.398796 5.824003
v -6.929803 -0.308949 6.015737
v -6.929803 -0.092038 6.095157
v -7.121482 -0.092038 6.015737
v 1.663958 -0.398796 5.824003
v 1.855638 -0.308949 5.824003
v 1.935034 -0.092038 5.824003
v 1.855638 -0.092038 6.015737
v 1.663958 -0.092038 6.095157
v 1.663958 -0.308949 6.015737
v -5.733456 13.347018 4.931120
v -5.948219 13.347018 4.842136
v -6.037177 13.347018 4.627312
v -6.178695 13.314239 4.810534
v -6.251940 13.103985 4.931120
v -6.189037 13.103985 5.083024
v -6.037177 13.103985 5.145945
v -5.916625 13.314239 5.072679
v 0.771332 13.347018 4.627312
v 0.682374 13.347018 4.842136
v 0.467612 13.347018 4.931120
v 0.650781 13.314239 5.072679
v 0.771332 13.103985 5.145945
v 0.923192 13.103985 5.083024
v 0.986095 13.103985 4.931120
v 0.912851 13.314239 4.810534
v -6.037177 13.347018 -1.575539
v -5.948219 13.347018 -1.790363
v -5.733456 13.347018 -1.879347
v -5.916625 13.314239 -2.020906
v -6.037177 13.103985 -2.094172
v -6.189037 13.103985 -2.031251
v -6.251940 13.103985 -1.879347
v -6.178695 13.314239 -1.758761
v 0.467612 13.347018 -1.879347
v 0.682374 13.347018 -1.790363
v 0.771332 13.347018 -1.575539
v 0.912851 13.314239 -1.758761
v 0.986095 13.103985 -1.879347
v 0.923192 13.103985 -2.031251
v 0.771332 13.103985 -2.094172
v 0.650781 13.314239 -2.020906
v -6.929803 -0.398796 -2.772229
v -7.121482 -0.308949 -2.772229
v -7.200879 -0.092038 -2.772229
v -7.121482 -0.092038 -2.963964
v -6.929803 -0.092038 -3.043383
v -6.929803 -0.308949 -2.963964
v 1.935034 -0.092038 -2.772229
v 1.855638 -0.308949 -2.772229
v 1.663958 -0.398796 -2.772229
v 1.663958 -0.308949 -2.963964
v 1.663958 -0.092038 -3.043383
v 1.855638 -0.092038 -2.963964
v -5.303857 13.103985 4.412414
v -5.455717 13.103985 4.349493
v -5.518620 13.103985 4.197589
v -5.593944 13.283437 4.227828
v -5.733383 13.347018 4.323430
v -5.644425 13.347018 4.538256
v -5.429662 13.347018 4.627239
v -5.334087 13.283437 4.487760
v 0.252775 13.103985 4.197589
v 0.189873 13.103985 4.349493
v 0.038013 13.103985 4.412414
v 0.068243 13.283437 4.487760
v 0.163817 13.347018 4.627239
v 0.378581 13.347018 4.538256
v 0.467539 13.347018 4.323430
v 0.328100 13.283437 4.227828
v 0.038013 13.103985 -1.360641
v 0.189873 13.103985 -1.297720
v 0.252775 13.103985 -1.145816
v 0.328100 13.283437 -1.176055
v 0.467539 13.347018 -1.271657
v 0.378581 13.347018 -1.486482
v 0.163817 13.347018 -1.575466
v 0.068243 13.283437 -1.435987
v -5.518620 13.103985 -1.145816
v -5.455717 13.103985 -1.297720
v -5.303857 13.103985 -1.360641
v -5.334087 13.283437 -1.435987
v -5.429662 13.347018 -1.575466
v -5.644425 13.347018 -1.486482
v -5.733383 13.347018 -1.271657
v -5.593944 13.283437 -1.176055
v -6.004199 1.595004 4.898134
v -6.195878 1.684852 4.898134
v -6.275276 1.901762 4.898134
v -6.195878 1.901762 5.089868
v -6.004199 1.901762 5.169288
v -6.004199 1.684852 5.089868
v 1.009432 1.901762 4.898134
v 0.930035 1.684852 4.898134
v 0.738356 1.595004 4.898134
v 0.738356 1.684852 5.089868
v 0.738356 1.901762 5.169288
v 0.930035 1.901762 5.089868
v 0.738356 1.901762 -2.117515
v 0.738356 1.684852 -2.038095
v 0.738356 1.595004 -1.846361
v 0.930035 1.684852 -1.846361
v 1.009432 1.901762 -1.846361
v 0.930035 1.901762 -2.038095
v -6.275276 1.901762 -1.846361
v -6.195878 1.684852 -1.846361
v -6.004199 1.595004 -1.846361
v -6.004199 1.684852 -2.038095
v -6.004199 1.901762 -2.117515
v -6.195878 1.901762 -2.038095
v -7.084054 -0.266595 5.978298
v 1.818210 -0.266595 5.978298
v -6.101239 13.310367 4.995201
v 0.835395 13.310367 4.995201
v -6.101239 13.310367 -1.943428
v 0.835395 13.310367 -1.943428
v -7.084054 -0.266595 -2.926524
v 1.818210 -0.266595 -2.926524
v -5.518174 13.285850 4.411967
v 0.252329 13.285850 4.411967
v 0.252329 13.285850 -1.360194
v -5.518174 13.285850 -1.360194
v -6.158452 1.727206 5.052430
v 0.892607 1.727206 5.052430
v 0.892607 1.727206 -2.000656
v -6.158452 1.727206 -2.000656
vt 0.928380 0.078023
vt 0.441192 0.549639
vt 0.133507 0.082228
vt 0.635700 0.549639
vt 0.332337 0.040151
vt 0.327949 0.040618
vt 0.323614 0.041379
vt 0.425414 0.808882
vt 0.423146 0.746306
vt 0.431360 0.746437
vt 0.433626 0.808842
vt 0.239314 0.947638
vt 0.246717 0.950525
vt 0.254123 0.947649
vt 0.252649 0.955893
vt 0.240781 0.955882
vt 0.253334 0.605635
vt 0.245959 0.602677
vt 0.238524 0.605482
vt 0.240079 0.597253
vt 0.251948 0.597377
vt 0.065833 0.742503
vt 0.068100 0.808674
vt 0.059885 0.808626
vt 0.057620 0.742460
vt 0.441193 0.355077
vt 0.737798 0.039180
vt 0.733455 0.038465
vt 0.729065 0.038044
vt 0.526242 0.025790
vt 0.635701 0.355076
vt 0.535074 0.025744
vt 0.530658 0.025616
vt 0.401582 0.749931
vt 0.407793 0.747710
vt 0.410074 0.807305
vt 0.403889 0.805013
vt 0.254060 0.925988
vt 0.254947 0.932322
vt 0.246723 0.935164
vt 0.238497 0.932311
vt 0.239389 0.925978
vt 0.089628 0.804834
vt 0.083439 0.807118
vt 0.081156 0.744233
vt 0.087317 0.746586
vt 0.238371 0.627142
vt 0.237545 0.620800
vt 0.245800 0.618037
vt 0.253997 0.620968
vt 0.253042 0.627292
vt 0.947595 0.761182
vt 0.635792 0.894701
vt 0.636995 0.897215
vt 0.638349 0.899643
vt 0.551212 0.609067
vt 0.792878 0.761182
vt 0.688124 0.981876
vt 0.567746 0.709417
vt 0.792878 0.606419
vt 0.566495 0.703996
vt 0.567035 0.706723
vt 0.596963 0.806781
vt 0.947595 0.606420
vt 0.595040 0.801544
vt 0.595918 0.804192
vt 0.246714 0.958264
vt 0.246038 0.594939
vt 0.246725 0.928347
vt 0.245730 0.624853
vt 0.063953 0.801531
vt 0.079186 0.799988
vt 0.055904 0.802918
vt 0.085502 0.798928
vt 0.095053 0.800280
vt 0.242132 0.919657
vt 0.240077 0.964821
vt 0.051572 0.811696
vt 0.047999 0.806841
vt 0.091711 0.795721
vt 0.246729 0.921181
vt 0.246709 0.966705
vt 0.251327 0.919665
vt 0.253344 0.964830
vt 0.414336 0.800180
vt 0.429564 0.801743
vt 0.398468 0.800452
vt 0.408018 0.799112
vt 0.437612 0.803139
vt 0.441936 0.811923
vt 0.401815 0.795896
vt 0.445515 0.807072
vt 0.076825 0.751315
vt 0.061612 0.749600
vt 0.083130 0.752446
vt 0.241043 0.633493
vt 0.092693 0.751199
vt 0.053579 0.748123
vt 0.049342 0.739296
vt 0.239475 0.588309
vt 0.089300 0.755722
vt 0.245657 0.632018
vt 0.045717 0.744111
vt 0.246124 0.586500
vt 0.250240 0.633585
vt 0.252739 0.588447
vt 0.427221 0.753489
vt 0.411976 0.754882
vt 0.405648 0.755878
vt 0.396113 0.754431
vt 0.439704 0.743448
vt 0.435284 0.752183
vt 0.399409 0.759024
vt 0.443228 0.748337
vt 0.440992 0.350354
vt 0.635902 0.350354
vt 0.640423 0.354874
vt 0.640422 0.549841
vt 0.635902 0.554362
vt 0.440991 0.554362
vt 0.436470 0.549841
vt 0.436471 0.354875
vt 0.437198 0.351080
vt 0.639695 0.351080
vt 0.639695 0.553635
vt 0.437197 0.553636
vt 0.788090 0.761387
vt 0.788090 0.606214
vt 0.792673 0.601631
vt 0.947800 0.601632
vt 0.952383 0.606215
vt 0.952383 0.761387
vt 0.947800 0.765970
vt 0.792673 0.765970
vt 0.788827 0.765234
vt 0.788827 0.602366
vt 0.951646 0.602367
vt 0.951646 0.765234
vt 0.780599 0.825157
vt 0.820064 0.890433
vt 0.821325 0.892424
vt 0.689590 0.984407
vt 0.685382 0.983635
vt 0.635390 0.901075
vt 0.779431 0.823067
vt 0.687080 0.985370
vt 0.634712 0.898394
vt 0.778398 0.820899
vt 0.632911 0.896283
vt 0.747560 0.751074
vt 0.593852 0.807842
vt 0.746655 0.748836
vt 0.593505 0.805078
vt 0.745897 0.746544
vt 0.591982 0.802748
vt 0.724220 0.673379
vt 0.564525 0.710075
vt 0.723604 0.671057
vt 0.564532 0.707301
vt 0.723141 0.668708
vt 0.563313 0.704819
vt 0.710974 0.593383
vt 0.547984 0.609500
vt 0.710647 0.591048
vt 0.550691 0.606187
vt 0.548155 0.607078
vt 0.848875 0.367562
vt 0.697668 0.336810
vt 0.693905 0.336187
vt 0.738351 0.033994
vt 0.929548 0.072990
vt 0.932945 0.078869
vt 0.852522 0.368392
vt 0.690097 0.335827
vt 0.733980 0.034423
vt 0.933047 0.074605
vt 0.536092 0.326062
vt 0.729849 0.032887
vt 0.532246 0.325950
vt 0.534944 0.020530
vt 0.528402 0.326104
vt 0.530636 0.021539
vt 0.374463 0.337503
vt 0.526319 0.020576
vt 0.370657 0.337904
vt 0.331499 0.035004
vt 0.327382 0.036583
vt 0.366901 0.338566
vt 0.323005 0.036199
vt 0.216072 0.370910
vt 0.132287 0.077207
vt 0.212434 0.371777
vt 0.128952 0.083122
vt 0.128805 0.078858
vn -0.010159 -0.999897 -0.010156
vn 0.010159 -0.999897 -0.010156
vn 0.010159 -0.999897 0.010156
vn -0.010159 -0.999897 0.010156
vn 0.009891 0.064100 0.997894
vn 0.008287 0.074495 0.997187
vn -0.008287 0.074495 0.997187
vn -0.009891 0.064100 0.997894
vn -0.997189 0.074474 0.008283
vn -0.997189 0.074474 -0.008283
vn -0.997896 0.064082 -0.009886
vn -0.997896 0.064082 0.009886
vn 0.997896 0.064082 -0.009886
vn 0.997189 0.074474 -0.008283
vn 0.997189 0.074474 0.008283
vn 0.997896 0.064082 0.009886
vn 0.071165 0.997463 -0.001818
vn 0.071165 0.997463 0.001818
vn -0.134475 0.990917 -0.000855
vn -0.134475 0.990917 0.000855
vn 0.000855 0.990922 0.134435
vn -0.001819 0.997464 -0.071147
vn 0.001819 0.997464 -0.071147
vn -0.000855 0.990922 0.134435
vn 0.134475 0.990917 -0.000855
vn -0.071165 0.997463 0.001818
vn -0.071165 0.997463 -0.001818
vn 0.134475 0.990917 0.000855
vn 0.001819 0.997464 0.071146
vn -0.001819 0.997464 0.071146
vn 0.000855 0.990922 -0.134435
vn -0.000855 0.990922 -0.134435
vn 0.008287 0.074495 -0.997187
vn 0.009891 0.064100 -0.997894
vn -0.009891 0.064100 -0.997894
vn -0.008287 0.074495 -0.997187
vn 0.998206 -0.058567 -0.012408
vn 0.998206 -0.058567 0.012408
vn 0.998101 -0.060708 0.010464
vn 0.998101 -0.060708 -0.010464
vn -0.010470 -0.060725 -0.998100
vn -0.012415 -0.058584 -0.998205
vn 0.012415 -0.058583 -0.998205
vn 0.010470 -0.060725 -0.998100
vn -0.998101 -0.060708 0.010464
vn -0.998206 -0.058567 0.012408
vn -0.998206 -0.058567 -0.012408
vn -0.998101 -0.060708 -0.010464
vn 0.010470 -0.060725 0.998100
vn 0.012415 -0.058584 0.998205
vn -0.012415 -0.058583 0.998205
vn -0.010470 -0.060725 0.998100
vn -0.012849 0.999835 -0.012845
vn -0.012849 0.999835 0.012845
vn 0.012849 0.999835 0.012845
vn 0.012849 0.999835 -0.012845
vn -0.423951 -0.905665 0.006093
vn -0.423951 -0.905665 -0.006092
vn -0.006148 -0.343362 0.939183
vn 0.006148 -0.343362 0.939183
vn -0.920605 0.086576 0.380777
vn -0.920004 0.091936 0.380972
vn 0.939215 -0.343274 0.006145
vn 0.939215 -0.343274 -0.006145
vn 0.380963 0.086594 0.920526
vn 0.381158 0.091955 0.919926
vn -0.049363 0.997561 0.049348
vn 0.046675 0.997820 -0.046662
vn -0.943422 0.331557 0.004918
vn -0.943422 0.331557 -0.004918
vn -0.009370 0.976367 0.215916
vn 0.009370 0.976367 0.215916
vn 0.049363 0.997561 0.049349
vn -0.046675 0.997820 -0.046662
vn 0.215976 0.976354 0.009367
vn 0.215976 0.976354 -0.009367
vn -0.049363 0.997561 -0.049349
vn 0.046675 0.997820 0.046662
vn -0.004921 0.331640 -0.943393
vn 0.004921 0.331640 -0.943393
vn -0.920004 0.091936 -0.380972
vn -0.920605 0.086576 -0.380777
vn 0.049363 0.997561 -0.049348
vn -0.046675 0.997820 0.046662
vn 0.381158 0.091955 -0.919926
vn 0.380963 0.086594 -0.920526
vn -0.006095 -0.905712 -0.423851
vn 0.006095 -0.905712 -0.423851
vn 0.921172 -0.076881 -0.381487
vn 0.921154 -0.079811 -0.380927
vn 0.412490 0.910954 -0.003875
vn 0.412490 0.910954 0.003875
vn 0.013493 0.388978 -0.921148
vn -0.013493 0.388978 -0.921148
vn -0.381674 -0.076897 -0.921093
vn -0.381114 -0.079827 -0.921075
vn -0.921189 0.388883 -0.013486
vn -0.921189 0.388883 0.013486
vn -0.921172 -0.076881 0.381487
vn -0.921154 -0.079811 0.380927
vn -0.013493 0.388978 0.921148
vn 0.013493 0.388978 0.921148
vn 0.381674 -0.076897 0.921093
vn 0.381114 -0.079827 0.921075
vn 0.939248 0.343152 -0.007795
vn 0.939248 0.343152 0.007795
vn 0.007735 0.905761 -0.423719
vn -0.007735 0.905761 -0.423719
vn -0.423819 0.905714 -0.007732
vn -0.423819 0.905714 0.007732
vn -0.007735 0.905761 0.423719
vn 0.007735 0.905761 0.423719
vn -0.892539 -0.298671 0.337889
vn 0.366494 -0.855243 0.366390
vn -0.111286 0.987541 0.111254
vn 0.111286 0.987541 0.111255
vn -0.111286 0.987541 -0.111255
vn 0.111286 0.987541 -0.111254
vn -0.366494 -0.855243 -0.366390
vn 0.892539 -0.298671 -0.337889
vn 0.350456 0.410927 -0.841617
vn -0.841718 0.410857 -0.350295
vn -0.350456 0.410927 0.841617
vn 0.841718 0.410857 0.350295
vn 0.366496 0.855243 -0.366388
vn -0.892538 0.298674 -0.337891
vn -0.338055 0.298730 0.892457
vn 0.892538 0.298674 0.337891
s 1
g UV_group4 pasted__pCube1 UV_polySurface1
usemtl phongE1SG
f 45/26/1 53/31/2 7/4/3 3/2/4
f 11/7/5 25/188/6 19/190/7 5/3/8
f 17/167/9 35/168/10 47/27/11 1/1/12
f 51/30/13 41/181/14 27/183/15 9/5/16
f 61/35/17 87/50/18 29/17/19 15/9/20
f 23/14/21 69/39/22 63/36/23 13/8/24
f 39/23/25 77/44/26 71/41/27 21/12/28
f 85/48/29 79/45/30 37/22/31 31/19/32
f 43/177/33 55/32/34 49/29/35 33/174/36
f 91/53/37 107/63/38 81/150/39 59/148/40
f 67/140/41 99/58/42 93/55/43 57/139/44
f 75/160/45 105/61/46 95/56/47 65/162/48
f 83/154/49 111/65/50 101/59/51 73/156/52
f 97/57/53 103/60/54 109/64/55 89/52/56
f 3/2/4 2/121/57 46/122/58 45/26/1
f 2/171/57 1/1/12 47/27/11 46/170/58
f 5/3/8 4/191/59 12/189/60 11/7/5
f 4/120/59 3/2/4 7/4/3 12/119/60
f 1/1/12 6/172/61 18/173/62 17/167/9
f 6/193/61 5/3/8 19/190/7 18/192/62
f 9/5/16 8/186/63 52/184/64 51/30/13
f 8/118/63 7/4/3 53/31/2 52/117/64
f 11/7/5 10/6/65 26/185/66 25/188/6
f 10/6/65 9/5/16 27/183/15 26/185/66
f 15/9/20 14/107/67 62/108/68 61/35/17
f 14/86/67 13/8/24 63/36/23 62/85/68
f 17/111/9 16/10/69 36/21/70 35/106/10
f 16/10/69 15/9/20 29/17/19 36/21/70
f 13/8/24 20/11/71 24/15/72 23/14/21
f 20/11/71 19/90/7 25/84/6 24/15/72
f 23/14/21 22/13/73 70/40/74 69/39/22
f 22/13/73 21/12/28 71/41/27 70/40/74
f 21/12/28 28/16/75 40/24/76 39/23/25
f 28/16/75 27/77/15 41/78/14 40/24/76
f 31/19/32 30/18/77 86/49/78 85/48/29
f 30/18/77 29/17/19 87/50/18 86/49/78
f 33/100/36 32/20/79 44/25/80 43/99/33
f 32/20/79 31/19/32 37/22/31 44/25/80
f 35/168/10 34/169/81 48/28/82 47/27/11
f 34/169/81 33/174/36 49/29/35 48/28/82
f 39/23/25 38/71/83 78/72/84 77/44/26
f 38/94/83 37/22/31 79/45/30 78/93/84
f 43/177/33 42/179/85 56/33/86 55/32/34
f 42/179/85 41/181/14 51/30/13 56/33/86
f 45/26/1 50/115/87 54/116/88 53/31/2
f 50/178/87 49/29/35 55/32/34 54/180/88
f 59/148/40 58/145/89 92/54/90 91/53/37
f 58/145/89 57/139/44 93/55/43 92/54/90
f 61/35/17 60/34/91 88/51/92 87/50/18
f 60/34/91 59/110/40 81/105/39 88/51/92
f 57/87/44 64/37/93 68/38/94 67/83/41
f 64/37/93 63/36/23 69/39/22 68/38/94
f 67/140/41 66/141/95 100/142/96 99/58/42
f 66/164/95 65/162/48 95/56/47 100/165/96
f 65/76/48 72/42/97 76/43/98 75/75/45
f 72/42/97 71/41/27 77/44/26 76/43/98
f 75/160/45 74/158/99 106/62/100 105/61/46
f 74/158/99 73/156/52 101/59/51 106/62/100
f 73/97/52 80/46/101 84/47/102 83/96/49
f 80/46/101 79/45/30 85/48/29 84/47/102
f 83/154/49 82/152/103 112/66/104 111/65/50
f 82/152/103 81/150/39 107/63/38 112/66/104
f 91/53/37 90/149/105 108/151/106 107/63/38
f 90/132/105 89/52/56 109/64/55 108/131/106
f 89/52/56 94/133/107 98/134/108 97/57/53
f 94/144/107 93/55/43 99/58/42 98/143/108
f 97/57/53 96/127/109 104/128/110 103/60/54
f 96/163/109 95/56/47 105/61/46 104/161/110
f 103/60/54 102/129/111 110/130/112 109/64/55
f 102/157/111 101/59/51 111/65/50 110/155/112
f 6/172/61 1/1/12 2/171/57 113/176/113
f 2/121/57 3/2/4 4/120/59 113/126/113
f 4/191/59 5/3/8 6/193/61 113/194/113
f 12/119/60 7/4/3 8/118/63 114/125/114
f 8/186/63 9/5/16 10/6/65 114/187/114
f 10/6/65 11/7/5 12/189/60 114/187/114
f 20/11/71 13/8/24 14/86/67 115/89/115
f 14/107/67 15/9/20 16/10/69 115/112/115
f 16/10/69 17/111/9 18/114/62 115/112/115
f 18/92/62 19/90/7 20/11/71 115/89/115
f 28/16/75 21/12/28 22/13/73 116/67/116
f 22/13/73 23/14/21 24/15/72 116/67/116
f 24/15/72 25/84/6 26/82/66 116/67/116
f 26/82/66 27/77/15 28/16/75 116/67/116
f 36/21/70 29/17/19 30/18/77 117/68/117
f 30/18/77 31/19/32 32/20/79 117/68/117
f 32/20/79 33/100/36 34/104/81 117/68/117
f 34/104/81 35/106/10 36/21/70 117/68/117
f 44/25/80 37/22/31 38/94/83 118/98/118
f 38/71/83 39/23/25 40/24/76 118/73/118
f 40/24/76 41/78/14 42/79/85 118/73/118
f 42/103/85 43/99/33 44/25/80 118/98/118
f 50/115/87 45/26/1 46/122/58 119/123/119
f 46/170/58 47/27/11 48/28/82 119/175/119
f 48/28/82 49/29/35 50/178/87 119/175/119
f 56/33/86 51/30/13 52/184/64 120/182/120
f 52/117/64 53/31/2 54/116/88 120/124/120
f 54/180/88 55/32/34 56/33/86 120/182/120
f 64/37/93 57/87/44 58/91/89 121/88/121
f 58/113/89 59/110/40 60/34/91 121/109/121
f 60/34/91 61/35/17 62/108/68 121/109/121
f 62/85/68 63/36/23 64/37/93 121/88/121
f 72/42/97 65/76/48 66/81/95 122/69/122
f 66/81/95 67/83/41 68/38/94 122/69/122
f 68/38/94 69/39/22 70/40/74 122/69/122
f 70/40/74 71/41/27 72/42/97 122/69/122
f 80/46/101 73/97/52 74/101/99 123/95/123
f 74/80/99 75/75/45 76/43/98 123/74/123
f 76/43/98 77/44/26 78/72/84 123/74/123
f 78/93/84 79/45/30 80/46/101 123/95/123
f 88/51/92 81/105/39 82/102/103 124/70/124
f 82/102/103 83/96/49 84/47/102 124/70/124
f 84/47/102 85/48/29 86/49/78 124/70/124
f 86/49/78 87/50/18 88/51/92 124/70/124
f 94/133/107 89/52/56 90/132/105 125/138/125
f 90/149/105 91/53/37 92/54/90 125/147/125
f 92/54/90 93/55/43 94/144/107 125/147/125
f 100/165/96 95/56/47 96/163/109 126/166/126
f 96/127/109 97/57/53 98/134/108 126/135/126
f 98/143/108 99/58/42 100/142/96 126/146/126
f 106/62/100 101/59/51 102/157/111 127/159/127
f 102/129/111 103/60/54 104/128/110 127/136/127
f 104/161/110 105/61/46 106/62/100 127/159/127
f 112/66/104 107/63/38 108/151/106 128/153/128
f 108/131/106 109/64/55 110/130/112 128/137/128
f 110/155/112 111/65/50 112/66/104 128/153/128
