# 3ds Max Wavefront OBJ Exporter v0.94b - (c)2007 guruware
# File Created: 21.04.2010 17:12:24

#
# object shelf
#

v  1.7414 27.2967 -29.6402
v  31.7414 27.2967 22.3213
v  0.0786 27.2967 -28.6802
v  30.0787 27.2967 23.2813
v  15.0746 27.2967 -2.7066
v  0.0701 81.2967 -28.6151
v  2.3498 84.1611 -24.6664
v  4.5959 86.2519 -20.7761
v  6.8853 87.7514 -16.8107
v  9.2267 88.8629 -12.7555
v  11.6042 89.5792 -8.6373
v  14.0020 89.8963 -4.4844
v  16.4040 89.8125 -0.3239
v  18.7948 89.3284 3.8171
v  21.1586 88.4466 7.9114
v  23.4793 87.1723 11.9309
v  25.7405 85.5135 15.8473
v  27.9543 83.4516 19.6818
v  30.0787 81.2967 23.2813
v  1.7414 81.2967 -29.6402
v  4.0376 84.1962 -25.6631
v  6.2593 86.2680 -21.8150
v  8.5521 87.7757 -17.8438
v  10.8999 88.8943 -13.7772
v  13.2863 89.6161 -9.6439
v  15.6946 89.9361 -5.4727
v  18.1077 89.8518 -1.2930
v  20.5089 89.3640 2.8660
v  22.8813 88.4761 6.9750
v  25.2081 87.1942 11.0053
v  27.4732 85.5274 14.9285
v  29.6606 83.4874 18.7172
v  31.7488 81.2967 22.2540
v  16.7720 81.2967 -3.6866
v  16.7720 27.3367 -3.6866
v  15.0399 81.2967 -2.6866
v  1.7961 27.3367 -29.6256
v  31.7561 27.3367 22.2666
v  0.0640 27.3367 -28.6256
v  30.0240 27.3367 23.2666
v  15.0399 27.3367 -2.6866
v  0.0786 81.2967 -28.6802
v  2.3749 84.1962 -24.7031
v  4.5965 86.2680 -20.8550
v  6.8893 87.7757 -16.8838
v  9.2372 88.8943 -12.8172
v  11.6236 89.6161 -8.6839
v  14.0318 89.9361 -4.5127
v  16.4450 89.8518 -0.3330
v  18.8461 89.3640 3.8260
v  21.2185 88.4761 7.9350
v  23.5454 87.1942 11.9653
v  25.8105 85.5274 15.8885
v  27.9979 83.4874 19.6772
v  30.0167 81.2967 23.2540
v  1.8021 81.2967 -29.6151
v  4.0819 84.1611 -25.6664
v  6.3280 86.2519 -21.7761
v  8.6174 87.7514 -17.8107
v  10.9587 88.8629 -13.7555
v  13.3363 89.5792 -9.6373
v  15.7340 89.8963 -5.4844
v  18.1361 89.8125 -1.3239
v  20.5269 89.3284 2.8171
v  22.8907 88.4466 6.9114
v  25.2114 87.1723 10.9309
v  27.4725 85.5135 14.8473
v  29.6864 83.4516 18.6818
v  31.7414 81.2967 22.3213
v  16.7373 27.2967 -3.6666
v  0.0094 76.3734 -28.6402
v  -21.5866 76.3334 -16.1256
v  30.0240 76.3734 23.2666
v  8.3734 76.3334 35.7666
v  0.0094 78.2934 -28.6402
v  -21.6066 78.2934 -16.1602
v  30.0240 78.2934 23.2666
v  8.3934 78.2934 35.8013
v  -21.6042 78.3266 -16.1616
v  -21.7020 78.2276 -16.1052
v  -21.7805 77.9501 -16.0599
v  -21.8240 77.5491 -16.0347
v  -21.8240 77.1041 -16.0347
v  -21.7805 76.7031 -16.0599
v  -21.7020 76.4256 -16.1052
v  -21.6042 76.3266 -16.1616
v  -21.6042 77.3266 -16.1616
v  8.3958 78.3266 35.7999
v  8.2980 78.2276 35.8564
v  8.2195 77.9501 35.9016
v  8.1760 77.5491 35.9268
v  8.1760 77.1041 35.9268
v  8.2195 76.7031 35.9016
v  8.2980 76.4256 35.8564
v  8.3958 76.3266 35.7999
v  8.3958 77.3266 35.7999
v  0.0640 76.3734 -28.6256
v  0.0294 76.3334 -28.6056
v  -21.6066 76.3734 -16.1602
v  30.0094 76.3734 23.3213
v  29.9894 76.3334 23.2866
v  8.3934 76.3734 35.8013
v  0.0294 78.3334 -28.6056
v  0.0640 78.2934 -28.6256
v  -21.5866 78.3334 -16.1256
v  29.9894 78.3334 23.2866
v  30.0094 78.2934 23.3213
v  8.3734 78.3334 35.7666
v  0.0094 54.3367 -28.6402
v  -21.5866 54.2967 -16.1256
v  30.0240 54.3367 23.2666
v  8.3734 54.2967 35.7666
v  0.0094 56.2567 -28.6402
v  -21.6066 56.2567 -16.1602
v  30.0240 56.2567 23.2666
v  8.3934 56.2567 35.8013
v  -21.6042 56.2986 -16.1616
v  -21.7020 56.1996 -16.1052
v  -21.7805 55.9221 -16.0599
v  -21.8240 55.5211 -16.0347
v  -21.8240 55.0761 -16.0347
v  -21.7805 54.6751 -16.0599
v  -21.7020 54.3976 -16.1052
v  -21.6042 54.2986 -16.1616
v  -21.6042 55.2986 -16.1616
v  8.3958 56.2986 35.7999
v  8.2980 56.1996 35.8564
v  8.2195 55.9221 35.9016
v  8.1760 55.5211 35.9268
v  8.1760 55.0761 35.9268
v  8.2195 54.6751 35.9016
v  8.2980 54.3976 35.8564
v  8.3958 54.2986 35.7999
v  8.3958 55.2986 35.7999
v  0.0640 54.3367 -28.6256
v  0.0294 54.2967 -28.6056
v  -21.6066 54.3367 -16.1602
v  30.0094 54.3367 23.3213
v  29.9894 54.2967 23.2866
v  8.3934 54.3367 35.8013
v  0.0294 56.2967 -28.6056
v  0.0640 56.2567 -28.6256
v  -21.5866 56.2967 -16.1256
v  29.9894 56.2967 23.2866
v  30.0094 56.2567 23.3213
v  8.3734 56.2967 35.7666
# 146 vertices

vn -0.8660 0.0000 0.5000
vn -0.5000 0.0000 -0.8660
vn -0.4379 0.4828 -0.7584
vn -0.0000 -1.0000 -0.0000
vn 0.8660 -0.0000 -0.5000
vn 0.5000 -0.0000 0.8660
vn -0.2396 0.8777 -0.4150
vn -0.1841 0.9298 -0.3188
vn -0.1361 0.9622 -0.2358
vn -0.0954 0.9816 -0.1652
vn -0.0540 0.9942 -0.0935
vn -0.0122 0.9997 -0.0212
vn 0.0297 0.9982 0.0514
vn 0.0713 0.9898 0.1235
vn 0.1125 0.9744 0.1948
vn 0.1528 0.9521 0.2647
vn 0.1921 0.9232 0.3328
vn 0.2222 0.8959 0.3848
vn 0.2329 0.8849 0.4034
vn 0.8660 0.0000 -0.5000
vn -0.8660 -0.0000 0.5000
vn 0.6124 -0.7071 -0.3535
vn 0.3262 0.0001 -0.9453
vn -0.6124 -0.7071 0.3535
vn -0.3383 0.0001 0.9410
vn 0.9841 0.0001 0.1776
vn -0.9818 0.0001 -0.1902
vn -0.7632 0.6455 -0.0288
vn 0.3566 0.6455 -0.6754
vn -0.7711 0.6276 0.1076
vn 0.4787 0.6276 -0.6140
vn -0.7186 0.6772 0.1583
vn 0.4963 0.6772 -0.5432
vn -0.6925 0.6901 0.2103
vn 0.5284 0.6901 -0.4946
vn -0.6629 0.7020 0.2603
vn 0.5569 0.7020 -0.4439
vn -0.6329 0.7089 0.3112
vn 0.5860 0.7089 -0.3925
vn -0.6031 0.7105 0.3625
vn 0.6155 0.7105 -0.3411
vn -0.5737 0.7068 0.4140
vn 0.6453 0.7068 -0.2898
vn -0.5447 0.6978 0.4651
vn 0.6751 0.6978 -0.2392
vn -0.5165 0.6839 0.5153
vn 0.7045 0.6839 -0.1896
vn -0.4889 0.6651 0.5644
vn 0.7333 0.6651 -0.1412
vn -0.4747 0.6310 0.6136
vn 0.7687 0.6310 -0.1043
vn -0.3680 0.6859 0.6278
vn 0.7277 0.6859 -0.0048
vn 0.0000 1.0000 0.0000
vn -0.5709 0.7520 0.3296
vn -0.7228 0.5508 0.4173
vn -0.5709 0.7519 0.3296
vn -0.8451 0.2184 0.4879
vn -0.8643 0.0623 0.4990
vn -0.8643 -0.0623 0.4990
vn -0.8451 -0.2184 0.4879
vn -0.7228 -0.5508 0.4173
vn -0.5709 -0.7520 0.3296
vn -0.5709 -0.7519 0.3296
vn 0.2113 -0.5773 -0.7887
vn 0.7887 -0.5774 0.2113
vn 0.2113 0.5774 -0.7887
vn 0.7887 0.5774 0.2113
vn 0.6124 -0.7071 -0.3536
vn 0.3535 -0.7071 0.6124
vn -0.3536 -0.7071 -0.6124
vn -0.3535 0.7071 -0.6124
vn 0.3535 0.7071 0.6124
vn 0.6124 0.7071 -0.3535
vn 0.2588 -0.0000 -0.9659
vn 0.9659 -0.0000 0.2588
vn 0.2113 -0.5774 -0.7887
vn 0.7887 -0.5773 0.2113
vn 0.7887 0.5773 0.2113
vn 0.3536 -0.7071 0.6124
vn -0.3536 0.7071 -0.6124
vn 0.3536 0.7071 0.6124
vn 0.6124 0.7071 -0.3536
# 83 vertex normals

vt 0.1383 0.9986 0.0738
vt 0.1383 0.4999 0.0738
vt 0.9989 0.4999 0.0738
vt 0.9989 0.9988 0.0738
vt 0.9995 0.0020 0.0005
vt 0.9995 0.0724 0.0005
vt 0.1383 0.0724 0.0005
vt 0.1383 0.0020 0.0005
vt 0.4999 0.0020 0.9995
vt 0.4999 0.0724 0.9995
vt 0.0005 0.0724 0.9995
vt 0.0005 0.0020 0.9995
vt 0.0011 0.4999 0.0005
vt 0.8617 0.4999 0.0005
vt 0.8617 0.9986 0.0005
vt 0.0011 0.9988 0.0005
vt 0.8617 0.0020 0.9995
vt 0.8617 0.0724 0.9995
vt 0.9995 0.0724 0.1383
vt 0.9230 0.0724 0.0920
vt 0.9230 0.0020 0.0920
vt 0.9995 0.0020 0.1383
vt 0.8491 0.0724 0.0590
vt 0.8491 0.0020 0.0590
vt 0.7727 0.0724 0.0350
vt 0.7727 0.0020 0.0350
vt 0.6945 0.0724 0.0171
vt 0.6945 0.0020 0.0171
vt 0.6151 0.0724 0.0056
vt 0.6151 0.0020 0.0056
vt 0.5349 0.0724 0.0005
vt 0.5349 0.0020 0.0005
vt 0.4545 0.0724 0.0018
vt 0.4545 0.0020 0.0018
vt 0.3745 0.0724 0.0096
vt 0.3745 0.0020 0.0096
vt 0.2955 0.0724 0.0238
vt 0.2955 0.0020 0.0238
vt 0.2181 0.0724 0.0442
vt 0.2181 0.0020 0.0442
vt 0.1426 0.0724 0.0708
vt 0.1426 0.0020 0.0708
vt 0.0698 0.0724 0.1033
vt 0.0698 0.0020 0.1033
vt 0.0005 0.0724 0.1383
vt 0.0005 0.0020 0.1383
vt 0.1383 0.0014 0.0738
vt 0.9989 0.0012 0.0738
vt 0.9995 0.0020 0.9995
vt 0.9995 0.0724 0.9995
vt 0.8617 0.0014 0.0005
vt 0.0011 0.0012 0.0005
vt 0.9074 0.0773 0.0005
vt 0.9407 0.1521 0.0005
vt 0.0011 0.4653 0.0738
vt 0.0062 0.3855 0.0738
vt 0.0025 0.5453 0.0738
vt 0.0102 0.6249 0.0738
vt 0.1039 0.9299 0.0738
vt 0.0710 0.8562 0.0738
vt 0.0243 0.7036 0.0738
vt 0.0446 0.7809 0.0738
vt 0.0176 0.3063 0.0738
vt 0.0593 0.1521 0.0738
vt 0.0926 0.0773 0.0738
vt 0.0353 0.2283 0.0738
vt 0.9989 0.4653 0.0005
vt 0.9975 0.5453 0.0005
vt 0.9898 0.6249 0.0005
vt 0.9757 0.7036 0.0005
vt 0.9290 0.8562 0.0005
vt 0.8961 0.9299 0.0005
vt 0.9554 0.7809 0.0005
vt 0.9938 0.3855 0.0005
vt 0.9824 0.3063 0.0005
vt 0.9647 0.2283 0.0005
vt 0.0005 0.9995 0.0020
vt 0.0005 0.4999 0.0020
vt 0.0005 0.0005 0.0020
vt 0.8617 0.0005 0.0020
vt 0.9995 0.0005 0.0724
vt 0.9995 0.4999 0.0724
vt 0.9995 0.9995 0.0724
vt 0.1383 0.9995 0.0724
vt 0.8617 0.9995 0.0020
vt 0.1383 0.0005 0.0724
vt 0.0920 0.0770 0.0724
vt 0.9080 0.0770 0.0020
vt 0.0590 0.1509 0.0724
vt 0.9410 0.1509 0.0020
vt 0.0350 0.2273 0.0724
vt 0.9650 0.2273 0.0020
vt 0.0171 0.3055 0.0724
vt 0.9829 0.3055 0.0020
vt 0.0056 0.3849 0.0724
vt 0.9944 0.3849 0.0020
vt 0.0005 0.4651 0.0724
vt 0.9995 0.4651 0.0020
vt 0.0018 0.5455 0.0724
vt 0.9982 0.5455 0.0020
vt 0.0096 0.6255 0.0724
vt 0.9904 0.6255 0.0020
vt 0.0238 0.7045 0.0724
vt 0.9762 0.7045 0.0020
vt 0.0442 0.7819 0.0724
vt 0.9558 0.7819 0.0020
vt 0.0708 0.8574 0.0724
vt 0.9292 0.8574 0.0020
vt 0.1033 0.9302 0.0724
vt 0.8967 0.9302 0.0020
vt 0.0012 0.0753 0.2174
vt 0.9988 0.0753 0.2174
vt 0.9988 0.9903 0.2174
vt 0.0012 0.9903 0.2174
vt 0.9988 0.0753 0.1855
vt 0.9988 0.9903 0.1855
vt 0.0012 0.9903 0.1855
vt 0.0012 0.0753 0.1855
vt 0.2168 0.0753 0.0005
vt 0.2168 0.9903 0.0005
vt 0.1862 0.9903 0.0005
vt 0.1862 0.0753 0.0005
vt 0.2174 0.0012 0.9903
vt 0.2174 0.9988 0.9903
vt 0.2168 0.9995 0.9903
vt 0.1855 0.9988 0.9903
vt 0.1862 0.9995 0.9903
vt 0.1855 0.0012 0.9903
vt 0.1862 0.0005 0.9903
vt 0.2168 0.0005 0.9903
vt 0.7832 0.9903 0.9995
vt 0.7832 0.0753 0.9995
vt 0.8138 0.0753 0.9995
vt 0.8138 0.9903 0.9995
vt 0.7832 0.9988 0.0738
vt 0.7832 0.0012 0.0738
vt 0.8138 0.0012 0.0738
vt 0.8138 0.9988 0.0738
vt 0.1857 0.0005 0.9902
vt 0.1872 0.0005 0.9943
vt 0.1872 0.9995 0.9943
vt 0.1857 0.9995 0.9902
vt 0.1917 0.0005 0.9977
vt 0.1917 0.9995 0.9977
vt 0.1981 0.0005 0.9995
vt 0.1981 0.9995 0.9995
vt 0.2051 0.0005 0.9995
vt 0.2051 0.9995 0.9995
vt 0.2115 0.0005 0.9977
vt 0.2115 0.9995 0.9977
vt 0.2160 0.0005 0.9943
vt 0.2160 0.9995 0.9943
vt 0.2175 0.0005 0.9902
vt 0.2175 0.9995 0.9902
vt 0.7825 0.0005 0.9902
vt 0.7984 0.0005 0.9902
vt 0.7984 0.9995 0.9902
vt 0.7825 0.9995 0.9902
vt 0.8143 0.0005 0.9902
vt 0.8143 0.9995 0.9902
vt 0.2016 0.9902 0.0005
vt 0.2175 0.9902 0.0005
vt 0.2160 0.9943 0.0005
vt 0.2051 0.9995 0.0005
vt 0.2115 0.9977 0.0005
vt 0.1981 0.9995 0.0005
vt 0.1917 0.9977 0.0005
vt 0.1872 0.9943 0.0005
vt 0.1857 0.9902 0.0005
vt 0.8128 0.9943 0.9995
vt 0.8083 0.9977 0.9995
vt 0.8019 0.9995 0.9995
vt 0.7885 0.9977 0.9995
vt 0.7949 0.9995 0.9995
vt 0.7840 0.9943 0.9995
vt 0.7825 0.9902 0.9995
vt 0.7984 0.9902 0.9995
vt 0.8143 0.9902 0.9995
vt 0.7832 0.0005 0.0753
vt 0.7826 0.0012 0.0753
vt 0.7832 0.9995 0.0753
vt 0.7826 0.9988 0.0753
vt 0.8138 0.0005 0.0753
vt 0.8145 0.0012 0.0753
vt 0.8145 0.9988 0.0753
vt 0.8138 0.9995 0.0753
vt 0.7826 0.0753 0.9988
vt 0.7826 0.9903 0.9988
vt 0.2174 0.9903 0.0012
vt 0.2174 0.0753 0.0012
vt 0.1855 0.0753 0.0012
vt 0.1855 0.9903 0.0012
vt 0.8145 0.9903 0.9988
vt 0.8145 0.0753 0.9988
vt 0.0012 0.0753 0.5689
vt 0.9988 0.0753 0.5689
vt 0.9988 0.9903 0.5689
vt 0.0012 0.9903 0.5689
vt 0.9988 0.0753 0.5370
vt 0.9988 0.9903 0.5370
vt 0.0012 0.9903 0.5370
vt 0.0012 0.0753 0.5370
vt 0.5683 0.0753 0.0005
vt 0.5683 0.9903 0.0005
vt 0.5376 0.9903 0.0005
vt 0.5376 0.0753 0.0005
vt 0.5689 0.0012 0.9903
vt 0.5689 0.9988 0.9903
vt 0.5683 0.9995 0.9903
vt 0.5370 0.9988 0.9903
vt 0.5376 0.9995 0.9903
vt 0.5370 0.0012 0.9903
vt 0.5376 0.0005 0.9903
vt 0.5683 0.0005 0.9903
vt 0.4317 0.9903 0.9995
vt 0.4317 0.0753 0.9995
vt 0.4624 0.0753 0.9995
vt 0.4624 0.9903 0.9995
vt 0.4317 0.9988 0.0738
vt 0.4317 0.0012 0.0738
vt 0.4624 0.0012 0.0738
vt 0.4624 0.9988 0.0738
vt 0.5370 0.0005 0.9902
vt 0.5385 0.0005 0.9943
vt 0.5385 0.9995 0.9943
vt 0.5370 0.9995 0.9902
vt 0.5430 0.0005 0.9977
vt 0.5430 0.9995 0.9977
vt 0.5494 0.0005 0.9995
vt 0.5494 0.9995 0.9995
vt 0.5565 0.0005 0.9995
vt 0.5565 0.9995 0.9995
vt 0.5629 0.0005 0.9977
vt 0.5629 0.9995 0.9977
vt 0.5673 0.0005 0.9943
vt 0.5673 0.9995 0.9943
vt 0.5689 0.0005 0.9902
vt 0.5689 0.9995 0.9902
vt 0.4311 0.0005 0.9902
vt 0.4471 0.0005 0.9902
vt 0.4471 0.9995 0.9902
vt 0.4311 0.9995 0.9902
vt 0.4630 0.0005 0.9902
vt 0.4630 0.9995 0.9902
vt 0.5529 0.9902 0.0005
vt 0.5689 0.9902 0.0005
vt 0.5673 0.9943 0.0005
vt 0.5565 0.9995 0.0005
vt 0.5629 0.9977 0.0005
vt 0.5494 0.9995 0.0005
vt 0.5430 0.9977 0.0005
vt 0.5385 0.9943 0.0005
vt 0.5370 0.9902 0.0005
vt 0.4615 0.9943 0.9995
vt 0.4570 0.9977 0.9995
vt 0.4506 0.9995 0.9995
vt 0.4371 0.9977 0.9995
vt 0.4435 0.9995 0.9995
vt 0.4327 0.9943 0.9995
vt 0.4311 0.9902 0.9995
vt 0.4471 0.9902 0.9995
vt 0.4630 0.9902 0.9995
vt 0.4317 0.0005 0.0753
vt 0.4311 0.0012 0.0753
vt 0.4317 0.9995 0.0753
vt 0.4311 0.9988 0.0753
vt 0.4624 0.0005 0.0753
vt 0.4630 0.0012 0.0753
vt 0.4630 0.9988 0.0753
vt 0.4624 0.9995 0.0753
vt 0.4311 0.0753 0.9988
vt 0.4311 0.9903 0.9988
vt 0.5689 0.9903 0.0012
vt 0.5689 0.0753 0.0012
vt 0.5370 0.0753 0.0012
vt 0.5370 0.9903 0.0012
vt 0.4630 0.9903 0.9988
vt 0.4630 0.0753 0.9988
# 278 texture coords

g shelf
s 4
f -92/-278/-83 -111/-277/-83 -106/-276/-83 -107/-275/-83 
s 8
f -146/-274/-82 -144/-273/-82 -105/-272/-81 -127/-271/-81 
s 16
f -77/-270/-80 -142/-269/-80 -144/-268/-80 -146/-267/-80 
s 2
f -112/-266/-79 -113/-265/-79 -114/-264/-79 -109/-263/-79 
s 32
f -143/-268/-78 -145/-267/-78 -78/-262/-78 -128/-261/-78 
s 8
f -105/-260/-81 -104/-259/-77 -126/-258/-77 -127/-257/-81 
f -104/-259/-77 -103/-256/-76 -125/-255/-76 -126/-258/-77 
f -103/-256/-76 -102/-254/-75 -124/-253/-75 -125/-255/-76 
f -102/-254/-75 -101/-252/-74 -123/-251/-74 -124/-253/-75 
f -101/-252/-74 -100/-250/-73 -122/-249/-73 -123/-251/-74 
f -100/-250/-73 -99/-248/-72 -121/-247/-72 -122/-249/-73 
f -99/-248/-72 -98/-246/-71 -120/-245/-71 -121/-247/-72 
f -98/-246/-71 -97/-244/-70 -119/-243/-70 -120/-245/-71 
f -97/-244/-70 -96/-242/-69 -118/-241/-69 -119/-243/-70 
f -96/-242/-69 -95/-240/-68 -117/-239/-68 -118/-241/-69 
f -95/-240/-68 -94/-238/-67 -116/-237/-67 -117/-239/-68 
f -94/-238/-67 -93/-236/-66 -115/-235/-66 -116/-237/-67 
f -93/-236/-66 -128/-234/-65 -78/-233/-65 -115/-235/-66 
s 4
f -106/-276/-83 -111/-277/-83 -141/-232/-83 -108/-231/-83 
s 16
f -145/-230/-80 -143/-229/-80 -142/-269/-80 -77/-270/-80 
s 2
f -91/-228/-79 -113/-265/-79 -112/-266/-79 -110/-227/-79 
s off
f -91/-228/-64 -90/-226/-64 -89/-225/-64 -113/-265/-64 
f -135/-224/-63 -136/-223/-63 -111/-277/-63 
f -111/-277/-83 -134/-222/-83 -135/-224/-83 
f -111/-277/-83 -133/-221/-83 -134/-222/-83 
f -92/-278/-83 -129/-220/-83 -130/-219/-83 -111/-277/-83 
f -132/-218/-63 -133/-221/-63 -111/-277/-63 
f -130/-219/-83 -131/-217/-83 -111/-277/-83 
f -131/-217/-83 -132/-218/-83 -111/-277/-83 
f -136/-223/-63 -137/-216/-63 -111/-277/-63 
f -139/-215/-63 -140/-214/-63 -141/-232/-63 -111/-277/-63 
f -138/-213/-63 -139/-215/-63 -111/-277/-63 
f -137/-216/-83 -138/-213/-83 -111/-277/-83 
f -85/-212/-79 -84/-211/-79 -113/-265/-79 
f -84/-211/-79 -83/-210/-79 -113/-265/-79 
f -83/-210/-79 -82/-209/-79 -113/-265/-79 
f -80/-208/-79 -79/-207/-79 -114/-264/-79 -113/-265/-79 
f -81/-206/-79 -80/-208/-79 -113/-265/-79 
f -82/-209/-64 -81/-206/-64 -113/-265/-64 
f -86/-205/-64 -85/-212/-64 -113/-265/-64 
f -87/-204/-79 -86/-205/-79 -113/-265/-79 
f -88/-203/-79 -87/-204/-79 -113/-265/-79 
f -89/-225/-79 -88/-203/-79 -113/-265/-79 
f -109/-263/-62 -145/-202/-62 -77/-201/-62 -112/-266/-62 
f -110/-227/-61 -146/-200/-61 -127/-199/-61 -91/-228/-61 
f -108/-231/-60 -144/-198/-60 -142/-197/-60 -106/-276/-60 
f -107/-275/-59 -143/-196/-59 -128/-195/-59 -92/-278/-59 
f -114/-264/-58 -78/-194/-58 -145/-202/-58 -109/-263/-58 
f -141/-232/-57 -105/-193/-57 -144/-198/-57 -108/-231/-57 
f -105/-193/-56 -141/-232/-56 -140/-214/-56 -104/-192/-56 
f -126/-191/-55 -90/-226/-55 -91/-228/-55 -127/-199/-55 
f -104/-192/-54 -140/-214/-54 -139/-215/-54 -103/-190/-54 
f -125/-189/-53 -89/-225/-53 -90/-226/-53 -126/-191/-53 
f -103/-190/-52 -139/-215/-52 -138/-213/-52 -102/-188/-52 
f -124/-187/-51 -88/-203/-51 -89/-225/-51 -125/-189/-51 
f -102/-188/-50 -138/-213/-50 -137/-216/-50 -101/-186/-50 
f -123/-185/-49 -87/-204/-49 -88/-203/-49 -124/-187/-49 
f -101/-186/-48 -137/-216/-48 -136/-223/-48 -100/-184/-48 
f -122/-183/-47 -86/-205/-47 -87/-204/-47 -123/-185/-47 
f -100/-184/-46 -136/-223/-46 -135/-224/-46 -99/-182/-46 
f -121/-181/-45 -85/-212/-45 -86/-205/-45 -122/-183/-45 
f -99/-182/-44 -135/-224/-44 -134/-222/-44 -98/-180/-44 
f -120/-179/-43 -84/-211/-43 -85/-212/-43 -121/-181/-43 
f -98/-180/-42 -134/-222/-42 -133/-221/-42 -97/-178/-42 
f -119/-177/-41 -83/-210/-41 -84/-211/-41 -120/-179/-41 
f -97/-178/-40 -133/-221/-40 -132/-218/-40 -96/-176/-40 
f -118/-175/-39 -82/-209/-39 -83/-210/-39 -119/-177/-39 
f -96/-176/-38 -132/-218/-38 -131/-217/-38 -95/-174/-38 
f -117/-173/-37 -81/-206/-37 -82/-209/-37 -118/-175/-37 
f -95/-174/-36 -131/-217/-36 -130/-219/-36 -94/-172/-36 
f -116/-171/-35 -80/-208/-35 -81/-206/-35 -117/-173/-35 
f -94/-172/-34 -130/-219/-34 -129/-220/-34 -93/-170/-34 
f -115/-169/-33 -79/-207/-33 -80/-208/-33 -116/-171/-33 
f -93/-170/-32 -129/-220/-32 -92/-278/-32 -128/-195/-32 
f -78/-194/-31 -114/-264/-31 -79/-207/-31 -115/-169/-31 
f -112/-266/-62 -77/-201/-62 -146/-200/-62 -110/-227/-62 
f -106/-276/-60 -142/-197/-60 -143/-196/-60 -107/-275/-60 
s 2
f -49/-168/-80 -46/-167/-80 -73/-166/-80 -75/-165/-80 
s 4
f -44/-164/-30 -42/-163/-30 -39/-162/-30 -41/-161/-30 
s 8
f -76/-160/-82 -48/-159/-82 -71/-158/-82 -72/-157/-82 
s 16
f -75/-156/-83 -73/-155/-83 -45/-154/-83 -39/-153/-83 
f -45/-154/-83 -69/-152/-83 -39/-153/-83 
f -39/-153/-83 -42/-151/-83 -71/-150/-83 -75/-156/-83 
f -48/-149/-83 -75/-156/-83 -71/-150/-83 
s 32
f -45/-148/-78 -47/-147/-78 -40/-146/-78 -69/-145/-78 
s 64
f -74/-144/-79 -50/-143/-79 -43/-142/-79 -70/-141/-79 
s 8
f -68/-140/-29 -67/-139/-28 -58/-138/-28 -59/-137/-27 
f -67/-139/-28 -66/-136/-26 -57/-135/-26 -58/-138/-28 
f -66/-136/-26 -65/-134/-25 -56/-133/-25 -57/-135/-26 
f -65/-134/-25 -64/-132/-24 -55/-131/-24 -56/-133/-25 
f -64/-132/-24 -63/-130/-23 -54/-129/-23 -55/-131/-24 
f -63/-130/-23 -62/-128/-22 -53/-127/-22 -54/-129/-23 
f -62/-128/-22 -61/-126/-21 -52/-125/-20 -53/-127/-22 
s 4
f -61/-124/-79 -60/-123/-79 -51/-122/-79 -52/-121/-79 
s 2
f -60/-123/-79 -68/-120/-79 -59/-119/-79 -51/-122/-79 
s 1
f -60/-118/-82 -61/-117/-82 -62/-116/-82 -64/-115/-82 
f -62/-116/-82 -63/-114/-82 -64/-115/-82 
f -64/-115/-82 -65/-113/-82 -66/-112/-82 -60/-118/-82 
f -60/-118/-82 -66/-112/-82 -67/-111/-82 -68/-110/-82 
f -58/-109/-78 -57/-108/-78 -56/-107/-78 -54/-106/-78 
f -56/-107/-78 -55/-105/-78 -54/-106/-78 
f -54/-106/-78 -53/-104/-78 -52/-103/-78 -58/-109/-78 
f -58/-109/-78 -52/-103/-78 -51/-102/-78 -59/-101/-78 
s off
f -76/-100/-19 -50/-143/-19 -49/-99/-19 
f -74/-144/-18 -47/-98/-18 -46/-97/-18 
f -72/-96/-17 -44/-95/-17 -43/-142/-17 
f -70/-141/-16 -41/-94/-16 -40/-93/-16 
f -49/-99/-15 -50/-143/-15 -74/-144/-15 -46/-97/-15 
f -46/-92/-14 -47/-147/-14 -45/-148/-14 -73/-91/-14 
f -75/-90/-13 -48/-159/-13 -76/-160/-13 -49/-89/-13 
f -44/-88/-12 -72/-157/-12 -71/-158/-12 -42/-87/-12 
f -39/-86/-11 -69/-145/-11 -40/-146/-11 -41/-85/-11 
f -41/-94/-10 -70/-141/-10 -43/-142/-10 -44/-95/-10 
f -72/-96/-9 -43/-142/-9 -50/-143/-9 -76/-100/-9 
f -47/-98/-8 -74/-144/-8 -70/-141/-8 -40/-93/-8 
s 2
f -11/-84/-80 -8/-83/-80 -35/-82/-80 -37/-81/-80 
s 4
f -6/-80/-30 -4/-79/-30 -1/-78/-30 -3/-77/-30 
s 8
f -38/-76/-82 -10/-75/-82 -33/-74/-82 -34/-73/-82 
s 16
f -37/-72/-83 -35/-71/-83 -7/-70/-83 -1/-69/-83 
f -7/-70/-83 -31/-68/-83 -1/-69/-83 
f -1/-69/-83 -4/-67/-83 -33/-66/-83 -37/-72/-83 
f -10/-65/-83 -37/-72/-83 -33/-66/-83 
s 32
f -7/-64/-78 -9/-63/-78 -2/-62/-78 -31/-61/-78 
s 64
f -36/-60/-79 -12/-59/-79 -5/-58/-79 -32/-57/-79 
s 8
f -30/-56/-27 -29/-55/-28 -20/-54/-28 -21/-53/-27 
f -29/-55/-28 -28/-52/-26 -19/-51/-26 -20/-54/-28 
f -28/-52/-26 -27/-50/-25 -18/-49/-25 -19/-51/-26 
f -27/-50/-25 -26/-48/-24 -17/-47/-24 -18/-49/-25 
f -26/-48/-24 -25/-46/-23 -16/-45/-23 -17/-47/-24 
f -25/-46/-23 -24/-44/-22 -15/-43/-22 -16/-45/-23 
f -24/-44/-22 -23/-42/-20 -14/-41/-20 -15/-43/-22 
s 4
f -23/-40/-79 -22/-39/-79 -13/-38/-79 -14/-37/-79 
s 2
f -22/-39/-79 -30/-36/-79 -21/-35/-79 -13/-38/-79 
s 1
f -22/-34/-82 -23/-33/-82 -24/-32/-82 -26/-31/-82 
f -24/-32/-82 -25/-30/-82 -26/-31/-82 
f -26/-31/-82 -27/-29/-82 -28/-28/-82 -22/-34/-82 
f -22/-34/-82 -28/-28/-82 -29/-27/-82 -30/-26/-82 
f -20/-25/-78 -19/-24/-78 -18/-23/-78 -16/-22/-78 
f -18/-23/-78 -17/-21/-78 -16/-22/-78 
f -16/-22/-78 -15/-20/-78 -14/-19/-78 -20/-25/-78 
f -20/-25/-78 -14/-19/-78 -13/-18/-78 -21/-17/-78 
s off
f -38/-16/-7 -12/-59/-7 -11/-15/-7 
f -36/-60/-6 -9/-14/-6 -8/-13/-6 
f -34/-12/-17 -6/-11/-17 -5/-58/-17 
f -32/-57/-5 -3/-10/-5 -2/-9/-5 
f -11/-15/-15 -12/-59/-15 -36/-60/-15 -8/-13/-15 
f -8/-8/-4 -9/-63/-4 -7/-64/-4 -35/-7/-4 
f -37/-6/-13 -10/-75/-13 -38/-76/-13 -11/-5/-13 
f -6/-4/-3 -34/-73/-3 -33/-74/-3 -4/-3/-3 
f -1/-2/-2 -31/-61/-2 -2/-62/-2 -3/-1/-2 
f -3/-10/-1 -32/-57/-1 -5/-58/-1 -6/-11/-1 
f -34/-12/-9 -5/-58/-9 -12/-59/-9 -38/-16/-9 
f -9/-14/-8 -36/-60/-8 -32/-57/-8 -2/-9/-8 
# 119 polygons - 34 triangles

